<svg version="1.1" id="Layer_1" xmlns:x="ns_extend;" xmlns:i="ns_ai;" xmlns:graph="ns_graphs;" xmlns="http://www.w3.org/2000/svg" xmlns:xlink="http://www.w3.org/1999/xlink" x="0px" y="0px" viewBox="0 0 50 50" style="enable-background:new 0 0 50 50;" xml:space="preserve">
 <style type="text/css">
  .st0{fill-rule:evenodd;clip-rule:evenodd;fill:#0C5297;}
 </style>
 <metadata>
  <sfw xmlns="ns_sfw;">
   <slices>
   </slices>
   <sliceSourceBounds bottomLeftOrigin="true" height="50" width="50" x="9.9" y="67.9">
   </sliceSourceBounds>
  </sfw>
 </metadata>
 <g>
  <path class="st0" d="M28.3,26.5c0,3.2-1.2,4.7-3.3,4.7c-2.1,0-3.3-1.5-3.3-4.7v-8.8h-4v8.5c0,5.5,2.7,8.1,7.3,8.1
		c4.6-0.1,7.3-2.7,7.3-8.1v-8.5h-4L28.3,26.5">
  </path>
  <path class="st0" d="M49.8,22l-8.9-0.7l7.8-4.5c0,0-0.7-2.5-2.6-5.4l-8.3,3.3l5-7.4c0,0-1.7-2-4.6-3.7L32,10.2l1.3-8.9
		c0,0-2.4-1-5.8-1.3L25,8.6L22.4,0c0,0-2.6,0.1-5.8,1.3l1.4,8.9l-6.1-6.6c0,0-2.3,1.2-4.6,3.7l5.1,7.4l-8.3-3.3c0,0-1.5,2.1-2.6,5.4
		l7.7,4.5L0.2,22c0,0-0.5,2.6,0,6l8.9,0.7l-7.8,4.5c0,0,0.7,2.5,2.6,5.4l8.3-3.3l-5.1,7.4c0,0,1.7,2,4.6,3.7l6.1-6.6l-1.3,8.9
		c0,0,2.4,1,5.8,1.3l2.6-8.6l2.6,8.6c0,0,2.6-0.1,5.8-1.3l-1.4-8.9l6.1,6.6c0,0,2.3-1.2,4.6-3.7l-5.1-7.4l8.3,3.3
		c0,0,1.5-2.1,2.6-5.4l-7.8-4.5l8.9-0.7C49.8,28,50.3,25.4,49.8,22 M36.5,27.4c2.9,1.9,4.3,5.7,7.3,6.1c-2.9,1.3-6.1-1.3-9.5-1.3
		c1.7,3,1.4,7,3.9,8.7c-3.2-0.1-4.9-3.9-7.9-5.3c0.3,3.5-1.7,7-0.2,9.6c-2.9-1.5-2.8-5.7-4.9-8.3c-1.3,3.2-4.6,5.5-4.3,8.5
		c-1.9-2.6-0.1-6.3-0.8-9.6c-2.5,2.4-6.5,3-7.6,5.8c-0.6-3.2,2.7-5.7,3.4-9c-3.3,1-7.1-0.1-9.3,1.9c0.8-3.1,4.9-4,6.9-6.6
		c-3.4-0.5-6.4-3.2-9.2-2.3c2.1-2.5,6.1-1.5,9.1-2.9c-2.9-1.9-4.3-5.7-7.3-6.1c2.9-1.3,6.1,1.3,9.5,1.3c-1.7-3-1.4-7-3.9-8.7
		c3.2,0.1,4.9,3.9,7.9,5.3c-0.3-3.5,1.7-7,0.2-9.6c2.9,1.5,2.8,5.7,4.9,8.3C26,9.9,29.3,7.6,29,4.6c1.9,2.6,0.1,6.3,0.8,9.6
		c0,0,0,0,0,0c2.5-2.4,6.5-3,7.6-5.8c0.6,3.2-2.7,5.7-3.4,9c3.3-1,7.1,0.1,9.3-1.9c-0.8,3.1-4.9,4-6.9,6.6c3.4,0.5,6.4,3.2,9.2,2.3
		C43.6,26.9,39.5,25.9,36.5,27.4">
  </path>
 </g>
</svg>